<?xml version="1.0" encoding="iso-8859-1"?>
<!-- Generator: Adobe Illustrator 19.0.0, SVG Export Plug-In . SVG Version: 6.00 Build 0)  -->
<svg version="1.1" id="Layer_1" xmlns="http://www.w3.org/2000/svg" xmlns:xlink="http://www.w3.org/1999/xlink" x="0px" y="0px"
	 viewBox="0 0 496 496" style="enable-background:new 0 0 496 496;" xml:space="preserve">
<g>
	<g>
		<g>
			<path d="M456,141.44V104h-64V76.44L307.072,0H40v141.44l-40,56V496h496V197.44L456,141.44z M456,168.96l20.544,28.76L456,210.56
				V168.96z M440,120v100.568l-143.136,89.456C282.288,300.936,265.408,296,248,296c-17.408,0-34.288,4.936-48.864,14.024
				L176,295.568V120H440z M312,25.96L363.152,72H312V25.96z M56,16h240v72h80v16H160v181.568l-104-65V16z M40,168.96v41.6
				l-20.544-12.84L40,168.96z M16,214.44l169.456,105.904L16,470.248V214.44z M29.112,480l168.216-148.808
				C211.32,318.824,229.32,312,248,312s36.68,6.824,50.672,19.192L466.888,480H29.112z M480,470.248L310.544,320.344L480,214.44
				V470.248z"/>
			<rect x="72" y="64" width="176" height="16"/>
			<rect x="72" y="96" width="72" height="16"/>
			<rect x="72" y="128" width="72" height="16"/>
			<rect x="72" y="160" width="72" height="16"/>
			<rect x="72" y="192" width="72" height="16"/>
			<path d="M424,136h-80v80h80V136z M408,200h-48v-48h48V200z"/>
			<rect x="192" y="160" width="136" height="16"/>
			<rect x="192" y="192" width="136" height="16"/>
			<rect x="312" y="224" width="16" height="16"/>
			<rect x="192" y="224" width="104" height="16"/>
		</g>
	</g>
</g>
<g>
</g>
<g>
</g>
<g>
</g>
<g>
</g>
<g>
</g>
<g>
</g>
<g>
</g>
<g>
</g>
<g>
</g>
<g>
</g>
<g>
</g>
<g>
</g>
<g>
</g>
<g>
</g>
<g>
</g>
</svg>
