<svg height="512pt" viewBox="0 -2 512.0002 512" width="512pt" xmlns="http://www.w3.org/2000/svg"><path d="m7.539062 216.765625c4.164063 0 7.542969-3.378906 7.542969-7.542969v-180.75c0-7.378906 6-13.390625 13.390625-13.390625h309.503906c7.386719 0 13.390626 6.011719 13.390626 13.390625v27.097656c0 4.160157 3.378906 7.539063 7.539062 7.539063 4.164062 0 7.542969-3.378906 7.542969-7.539063v-27.097656c0-15.695312-12.769531-28.472656-28.472657-28.472656h-309.503906c-15.703125 0-28.472656 12.777344-28.472656 28.472656v180.75c0 4.164063 3.378906 7.542969 7.539062 7.542969zm0 0"/><path d="m49.003906 175.078125c-4.164062 0-7.539062 3.378906-7.539062 7.542969v112.695312c0 6.929688 5.636718 12.566406 12.566406 12.566406h32.171875c6.929687 0 12.566406-5.636718 12.566406-12.566406v-211.472656c0-6.929688-5.636719-12.566406-12.566406-12.566406h-32.171875c-6.929688 0-12.566406 5.636718-12.566406 12.566406v68.613281c0 4.164063 3.375 7.542969 7.539062 7.542969 4.164063 0 7.539063-3.378906 7.539063-7.542969v-66.097656h27.148437v206.445313h-27.148437v-110.183594c0-4.164063-3.375-7.542969-7.539063-7.542969zm0 0"/><path d="m174.175781 295.316406v-245.660156c0-6.925781-5.640625-12.566406-12.566406-12.566406h-32.175781c-6.925782 0-12.566406 5.640625-12.566406 12.566406v245.660156c0 6.925782 5.640624 12.566406 12.566406 12.566406h32.175781c6.925781 0 12.566406-5.640624 12.566406-12.566406zm-15.082031-2.515625h-27.144531v-240.628906h27.144531zm0 0"/><path d="m249.578125 133.226562c0-6.9375-5.636719-12.570312-12.566406-12.570312h-32.171875c-6.925782 0-12.566406 5.632812-12.566406 12.570312v162.089844c0 6.925782 5.640624 12.566406 12.566406 12.566406h32.171875c6.929687 0 12.566406-5.640624 12.566406-12.566406zm-15.078125 159.574219h-27.148438v-157.0625h27.148438zm0 0"/><path d="m132.761719 355.414062h-91.792969c-4.164062 0-7.539062 3.375-7.539062 7.539063 0 4.167969 3.375 7.542969 7.539062 7.542969h91.792969c4.164062 0 7.539062-3.375 7.539062-7.542969 0-4.164063-3.375-7.539063-7.539062-7.539063zm0 0"/><path d="m132.761719 397.734375h-91.792969c-4.164062 0-7.539062 3.375-7.539062 7.539063 0 4.164062 3.375 7.542968 7.539062 7.542968h91.792969c4.164062 0 7.539062-3.378906 7.539062-7.542968 0-4.164063-3.375-7.539063-7.539062-7.539063zm0 0"/><path d="m132.761719 440.054688h-91.792969c-4.164062 0-7.539062 3.378906-7.539062 7.542968 0 4.164063 3.375 7.539063 7.539062 7.539063h91.792969c4.164062 0 7.539062-3.375 7.539062-7.539063 0-4.164062-3.375-7.542968-7.539062-7.542968zm0 0"/><path d="m220.925781 355.414062h-59.503906c-4.164063 0-7.542969 3.375-7.542969 7.539063 0 4.167969 3.378906 7.542969 7.542969 7.542969h59.503906c4.164063 0 7.542969-3.375 7.542969-7.542969 0-4.164063-3.378906-7.539063-7.542969-7.539063zm0 0"/><path d="m153.878906 405.273438c0 4.164062 3.378906 7.542968 7.542969 7.542968h76.605469c4.164062 0 7.542968-3.378906 7.542968-7.542968 0-4.164063-3.378906-7.539063-7.542968-7.539063h-76.605469c-4.164063 0-7.542969 3.375-7.542969 7.539063zm0 0"/><path d="m161.421875 455.136719h93.699219c4.164062 0 7.539062-3.375 7.539062-7.539063 0-4.164062-3.375-7.542968-7.539062-7.542968h-93.699219c-4.164063 0-7.542969 3.378906-7.542969 7.542968 0 4.164063 3.378906 7.539063 7.542969 7.539063zm0 0"/><path d="m506.820312 342.1875c-1.304687-7.460938-8.445312-12.445312-15.894531-11.128906l-28.984375 5.105468c-1.246094-2.390624-2.59375-4.734374-4.054687-7.007812l18.921875-22.550781c2.363281-2.8125 3.480468-6.375 3.160156-10.023438-.3125-3.648437-2.042969-6.957031-4.847656-9.308593l-21.878906-18.359376c-5.800782-4.867187-14.464844-4.101562-19.332032 1.6875l-18.910156 22.542969c-2.503906-1.035156-5.039062-1.960937-7.621094-2.777343v-29.414063c0-7.574219-6.15625-13.726563-13.726562-13.726563h-27.203125v-161.496093c0-4.171875-3.378907-7.539063-7.542969-7.539063-4.160156 0-7.539062 3.367188-7.539062 7.539063v204.636719c-2.574219.816406-5.109376 1.742187-7.613282 2.777343l-18.769531-22.371093v-58.816407c0-4.160156-3.378906-7.539062-7.539063-7.539062-4.164062 0-7.542968 3.378906-7.542968 7.539062v54.472657c-3.238282 1.113281-2.535156.925781-26.269532 20.84375-.300781.25-.59375.523437-.875.804687v-209.09375h27.144532v102.8125c0 4.160156 3.378906 7.539063 7.542968 7.539063 4.160157 0 7.539063-3.378907 7.539063-7.539063v-105.328125c0-6.925781-5.640625-12.566406-12.566406-12.566406h-32.171875c-6.929688 0-12.570313 5.640625-12.570313 12.566406v218.847656c0 6.925782 5.640625 12.566406 12.570313 12.566406h2.773437c13.480469 16.074219 9.5625 11.402344 17.847657 21.273438-1.460938 2.273438-2.808594 4.617188-4.054688 7.007812l-28.984375-5.105468c-7.417969-1.308594-14.566406 3.621094-15.894531 11.128906l-4.96875 28.121094c-1.304688 7.449218 3.679687 14.589844 11.132812 15.894531l28.992188 5.117187c.351562 2.683594.816406 5.339844 1.398437 7.972657l-25.484375 14.71875c-6.558594 3.78125-8.808594 12.195312-5.019531 18.742187l14.277344 24.734375c3.78125 6.554688 12.195312 8.804688 18.742187 5.023438l25.503906-14.71875c1.992188 1.820312 4.054688 3.558593 6.195313 5.199219l-10.066406 27.667968c-1.636719 4.484375-.773438 9.269532 1.863281 12.851563h-286.027344c-7.390625 0-13.390625-6.015625-13.390625-13.394531v-240.730469c0-4.164063-3.378906-7.542969-7.542969-7.542969-4.160156 0-7.539062 3.378906-7.539062 7.542969v240.730469c0 15.695312 12.769531 28.472656 28.472656 28.472656h309.503906c2.792969 0 5.507813-.402344 8.0625-1.175782 9.757813 3.589844 16.816407-1.007812 19.222657-7.601562l10.074219-27.667969c2.703124.121094 5.378906.121094 8.09375 0l10.0625 27.667969c2.566406 7.046875 10.355468 10.820312 17.585937 8.207031l26.84375-9.773437c7.109375-2.585938 10.789063-10.476563 8.203125-17.585938l-10.074219-27.667968c2.140625-1.640626 4.203125-3.378907 6.195313-5.199219l25.503906 14.71875c6.5625 3.792969 14.957031 1.550781 18.742188-5.023438l14.277343-24.734375c3.789063-6.546875 1.539063-14.960937-5.019531-18.742187l-25.484375-14.71875c.582031-2.632813 1.042969-5.289063 1.398437-7.972657l28.992188-5.117187c6.648438-1.164063 11.34375-6.976563 11.34375-13.511719 0-1.640625.214844.042969-5.179688-30.503906zm-52.511718 58.695312c-.964844 3.328126.472656 6.886719 3.46875 8.625l29.257812 16.882813-12.917968 22.378906c-44.828126-25.875-28.160157-20.382812-51.308594-4.816406-2.875 1.929687-4.070313 5.582031-2.882813 8.839844l11.5625 31.75-24.292969 8.835937-11.550781-31.75c-1.1875-3.257812-4.445312-5.289062-7.894531-4.925781-27.929688 3.023437-18.511719-11.921875-36.191406 36.675781l-6.042969-2.203125-18.25-6.632812c17.730469-48.691407 15.148437-31.226563-4.140625-51.367188-2.414062-2.492187-6.214844-3.035156-9.210938-1.308593l-29.277343 16.902343-12.917969-22.378906 29.257812-16.882813c2.996094-1.738281 4.433594-5.296874 3.46875-8.625-1.550781-5.347656-2.515624-10.898437-2.886718-16.5-.230469-3.457031-2.792969-6.324218-6.210938-6.925781l-33.289062-5.863281 4.484375-25.457031c50.878906 8.980469 33.402343 9.578125 49.855469-12.996094 2.050781-2.808594 1.921874-6.648437-.300782-9.300781-.109375-.132813-14.203125-16.921875-21.726562-25.890625 14.132812-11.863281 9.691406-8.125 19.796875-16.609375 13.003906 15.496094 8.152343 9.710937 21.714843 25.878906 2.234376 2.65625 5.992188 3.449219 9.097657 1.910156 4.855469-2.390625 10.183593-4.347656 15.734375-5.71875 3.300781-.804687 5.640625-3.730468 5.734375-7.109375.007812-.070312.007812-.140625.007812-.210937v-33.78125h25.839844v33.78125c0 3.46875 2.371094 6.496094 5.742187 7.320312 5.425782 1.335938 10.714844 3.257813 15.734376 5.71875 3.113281 1.539063 6.863281.746094 9.097656-1.910156l21.714844-25.878906 19.796874 16.609375-21.714843 25.890625c-2.234375 2.652344-2.363281 6.492187-.3125 9.300781 3.308593 4.511719 6.121093 9.386719 8.382812 14.496094 1.398438 3.167969 4.789063 4.964843 8.207031 4.375l33.265626-5.875 4.484374 25.457031c-51.078124 8.996094-34.648437 2.554688-42.386718 29.289062zm0 0"/><path d="m379.375 310.4375c-37.269531 0-67.59375 30.324219-67.59375 67.597656 0 37.273438 30.324219 67.597656 67.59375 67.597656 37.273438 0 67.597656-30.324218 67.597656-67.597656.003906-37.273437-30.320312-67.597656-67.597656-67.597656zm0 120.113281c-28.957031 0-52.515625-23.558593-52.515625-52.515625 0-28.957031 23.558594-52.515625 52.515625-52.515625 28.960938 0 52.519531 23.558594 52.519531 52.515625 0 28.957032-23.558593 52.515625-52.519531 52.515625zm0 0"/><path d="m341.488281 378.035156c0 33.878906 41.035157 50.441406 64.679688 26.792969 14.808593-14.808594 14.808593-38.777344 0-53.585937-23.949219-23.949219-64.679688-6.660157-64.679688 26.792968zm21.761719 16.128906c-14.226562-14.226562-4.28125-38.9375 16.125-38.9375 12.609375 0 22.8125 10.203126 22.8125 22.808594 0 20.121094-24.511719 30.554688-38.9375 16.128906zm0 0"/></svg>