<svg height="480pt" viewBox="-72 0 480 480.00005" width="480pt" xmlns="http://www.w3.org/2000/svg"><path d="m144 136c0 8.835938-7.164062 16-16 16s-16-7.164062-16-16 7.164062-16 16-16 16 7.164062 16 16zm0 0"/><path d="m224 136c0 8.835938-7.164062 16-16 16s-16-7.164062-16-16 7.164062-16 16-16 16 7.164062 16 16zm0 0"/><path d="m188.425781 184.839844c-9.417969 4.699218-19.792969 7.148437-30.3125 7.160156h-6.113281v16h6.113281c13-.003906 25.820313-3.015625 37.460938-8.800781zm0 0"/><path d="m8 480h320c4.417969 0 8-3.582031 8-8v-106.335938c-.730469-25.535156-18.039062-47.605468-42.664062-54.398437l-49.246094-12.066406-9.691406-2.398438-12.335938-14.105469c-1.535156-1.734374-3.746094-2.71875-6.0625-2.695312v-38.398438c22.75-14.832031 37.375-39.339843 39.632812-66.402343 18.761719-3.664063 32.316407-20.082031 32.367188-39.199219-.027344-8.570312-2.835938-16.898438-8-23.734375l2.351562-23.761719c.183594-2.007812.273438-4 .273438-5.945312-.058594-30.703125-23.777344-56.167969-54.402344-58.398438-11.714844-15.253906-29.867187-24.1835935-49.101562-24.160156h-107.121094c-4.417969 0-8 3.582031-8 8v32c.039062 2.980469.363281 5.945312.96875 8.863281-9.816406 12.3125-14.101562 28.136719-11.847656 43.722657l2.878906 19.710937c-8.226562 10.976563-10.214844 25.417969-5.261719 38.210937 4.957031 12.789063 16.15625 22.125 29.628907 24.691407 2.238281 27.085937 16.867187 51.617187 39.632812 66.464843v38.335938c-2.300781-.011719-4.496094.972656-6.023438 2.695312l-12.335937 14.105469-4.679687 1.144531-54.28125 13.285157c-3.019532.722656-5.964844 1.71875-8.800782 2.976562l-.453125.199219c-1.289062.535156-2.542969 1.152344-3.753906 1.84375-1.25.605469-2.449219 1.308594-3.59375 2.101562-.597656.375-1.15625.800782-1.742187 1.199219-.855469.578125-1.726563 1.121094-2.527344 1.746094-.601563.457031-1.082032 1.015625-1.65625 1.496094-1.191406.992187-2.335938 2.007812-3.433594 3.09375-1.09375 1.089843-2.101562 2.175781-3.078125 3.320312s-2 2.402344-2.921875 3.679688c-.253906.371093-.613281.714843-.863281 1.089843-.898438 1.207032-1.703125 2.488282-2.398438 3.824219-.367187.640625-.714843 1.277344-1.050781 1.933594s-.796875 1.425781-1.070312 2.097656l-.960938 2.183594c-.230469.558594-.429688 1.152344-.640625 1.710937-.34375.914063-.664063 1.832032-.964844 2.769532l-.875 2.808594c-.410156 1.339843-.710937 2.707031-.902343 4.09375-.644532 3.386718-.976563 6.820312-.992188 10.265624v106.335938c0 4.417969 3.582031 8 8 8zm216.238281-102.054688 6.824219 27.292969-44.542969 39.5625 48.3125-131.199219 6.59375 1.757813 19.148438 52.640625h-28.574219c-2.464844 0-4.789062 1.136719-6.308594 3.078125-1.515625 1.941406-2.050781 4.476563-1.453125 6.867187zm-113.933593-6.867187c-1.515626-1.941406-3.839844-3.078125-6.304688-3.078125h-28.574219l19.148438-52.671875 6.59375-1.761719 48.3125 131.234375-44.542969-39.59375 6.824219-27.296875c.585937-2.378906.046875-4.894531-1.457031-6.832031zm90.976562-12.679687-9.28125 25.21875v-36.800782zm-33.28125-41.597657 8 10v100.289063l-8 21.710937-8-21.746093v-100.246094zm-24 66.808594-9.28125-25.210937 9.28125-11.589844zm76.726562-78.066406-12.992187 35.304687-17.476563-21.847656-8.800781-11.039062 32.070313-10.6875zm-66.140624 2.402343-8.800782 11.039063-17.480468 21.847656-12.992188-35.304687 7.238281-8.277344zm-138.585938 58.007813c.011719-2.089844.191406-4.171875.527344-6.234375.046875-.292969.066406-.558594.121094-.863281 2.773437-15.679688 14.625-28.195313 30.128906-31.824219l29.023437-6.878906-19.3125 53.113281c-.890625 2.449219-.535156 5.183594.960938 7.320313 1.496093 2.136718 3.941406 3.414062 6.550781 3.414062h29.753906l-5.515625 22.054688c-.722656 2.894531.21875 5.949218 2.449219 7.929687l56.273438 50.015625h-74.960938v-56h-16v56h-40zm304 98.046875h-40v-56h-16v56h-74.960938l56.273438-50.015625c2.230469-1.980469 3.171875-5.035156 2.449219-7.929687l-5.515625-22.054688h29.753906c2.609375 0 5.054688-1.277344 6.550781-3.414062 1.496094-2.136719 1.855469-4.871094.960938-7.320313l-19.519531-53.679687 29.511718 7.199218c1.847656.472656 3.65625 1.078125 5.417969 1.816406.34375.132813.71875.207032 1.054687.359376.078126 0 .144532.078124.222657.117187 14.492187 6.402344 23.832031 20.761719 23.800781 36.601563zm-64-305.367188v-45.265624c9.597656 3.386718 16.011719 12.457031 16.011719 22.632812s-6.414063 19.246094-16.011719 22.632812zm-176-142.632812h99.121094c15.359375-.007812 29.707031 7.667969 38.230468 20.449219 1.484376 2.21875 3.980469 3.550781 6.648438 3.550781 23.515625.003906 42.589844 19.042969 42.640625 42.558594 0 1.441406-.074219 2.945312-.199219 4.417968l-1.296875 13.039063c-4.230469-2.007813-8.789062-3.238281-13.457031-3.640625l-1.382812-1.382812c-7.757813-7.769532-14.207032-16.742188-19.105469-26.566407-1.359375-2.726562-4.152344-4.441406-7.199219-4.425781h-133c-4.660156-4.050781-8.039062-9.367188-9.726562-15.304688-.835938-2.824218-1.265626-5.75-1.273438-8.695312zm-9.496094 84.199219-1.542968-9.894531c-1.144532-7.925782.042968-16.011719 3.421874-23.273438 2.1875 3.140625 4.746094 6.003906 7.617188 8.527344v21.242187c-3.296875.722657-6.488281 1.867188-9.496094 3.398438zm-6.503906 35.800781c.011719-10.167969 6.417969-19.230469 16-22.632812v45.265624c-9.582031-3.402343-15.988281-12.464843-16-22.632812zm32 32v-88h123.199219c5.347656 9.652344 12.019531 18.503906 19.824219 26.304688l1.007812 1.007812v60.6875c0 39.765625-32.234375 72-72 72s-72-32.234375-72-72zm72 88c10.957031-.015625 21.8125-2.085938 32-6.113281v35.007812l-32 10.671875-32-10.671875v-35.007812c10.191406 4.027343 21.042969 6.097656 32 6.113281zm0 0"/></svg>