<?xml version="1.0" encoding="iso-8859-1"?>
<!-- Generator: Adobe Illustrator 19.0.0, SVG Export Plug-In . SVG Version: 6.00 Build 0)  -->
<svg version="1.1" id="Capa_1" xmlns="http://www.w3.org/2000/svg" xmlns:xlink="http://www.w3.org/1999/xlink" x="0px" y="0px"
	 viewBox="0 0 512 512" style="enable-background:new 0 0 512 512;" xml:space="preserve">
<g>
	<g>
		<path d="M71.177,112.775c-12.516,0-22.697,10.182-22.697,22.697c0,12.516,10.182,22.697,22.697,22.697
			s22.697-10.182,22.697-22.697C93.875,122.957,83.693,112.775,71.177,112.775z M71.176,143.169c-4.244,0-7.696-3.452-7.696-7.696
			s3.452-7.696,7.696-7.696c4.244,0,7.696,3.452,7.696,7.696S75.421,143.169,71.176,143.169z"/>
	</g>
</g>
<g>
	<g>
		<path d="M133.892,112.775c-12.516,0-22.697,10.182-22.697,22.697c0,12.516,10.182,22.697,22.697,22.697
			c12.516,0,22.697-10.182,22.697-22.697C156.589,122.957,146.408,112.775,133.892,112.775z M133.891,143.169
			c-4.244,0-7.696-3.452-7.696-7.696s3.453-7.696,7.696-7.696c4.244,0,7.696,3.452,7.696,7.696S138.135,143.169,133.891,143.169z"/>
	</g>
</g>
<g>
	<g>
		<path d="M196.607,112.775c-12.516,0-22.697,10.182-22.697,22.697c0,12.516,10.182,22.697,22.697,22.697
			c12.516,0,22.697-10.182,22.697-22.697C219.304,122.957,209.123,112.775,196.607,112.775z M196.607,143.169
			c-4.244,0-7.696-3.452-7.696-7.696s3.452-7.696,7.696-7.696s7.696,3.452,7.696,7.696S200.851,143.169,196.607,143.169z"/>
	</g>
</g>
<g>
	<g>
		<path d="M454.37,333.182H181.409c-4.142,0-7.5,3.358-7.5,7.5s3.358,7.5,7.5,7.5h272.962c4.142,0,7.5-3.358,7.5-7.5
			S458.513,333.182,454.37,333.182z"/>
	</g>
</g>
<g>
	<g>
		<path d="M504.5,247.669c4.142,0,7.5-3.358,7.5-7.5v-106.81c0-15.304-12.451-27.755-27.756-27.755H271.436V50.581
			c0-11.889-9.672-21.56-21.56-21.56h-98.484c-4.142,0-7.5,3.358-7.5,7.5c0,4.142,3.358,7.5,7.5,7.5h98.484
			c3.617,0,6.559,2.942,6.559,6.559c0,4.823,0,162.901,0,167.721c0,3.617-2.942,6.56-6.559,6.56h-19.68
			c-6.464,0-11.725,5.259-11.725,11.724v37.815l-37.965-43.756c-3.189-3.676-7.809-5.784-12.676-5.784c-3.934,0-142.585,0-146.27,0
			c-3.617,0-6.559-2.942-6.559-6.559V50.581c0-3.617,2.942-6.559,6.559-6.559h94.83c4.142,0,7.5-3.358,7.5-7.5
			c0-4.142-3.358-7.5-7.5-7.5H21.56C9.672,29.021,0,38.693,0,50.581v167.722c0,11.889,9.672,21.56,21.56,21.56h106.01v135.119
			c0,15.305,12.451,27.756,27.756,27.756h26.936v67.193c0,12.057,14.986,17.628,22.873,8.539l63.954-73.708
			c1.116-1.286,2.732-2.024,4.435-2.024h210.72c15.305,0,27.756-12.451,27.756-27.756v-99.812c0-4.142-3.358-7.5-7.5-7.5
			c-4.142,0-7.5,3.358-7.5,7.5v99.812c0,7.033-5.721,12.755-12.755,12.755h-210.72c-6.052,0-11.799,2.622-15.766,7.193
			l-60.496,69.723v-63.332c0-7.491-6.094-13.585-13.585-13.585h-28.352c-7.033,0-12.755-5.721-12.755-12.755V239.864h25.259
			c0.517,0,1.007,0.224,1.345,0.614l8.795,10.137c-2.411,1.247-4.061,3.759-4.061,6.66c0,4.142,3.358,7.5,7.5,7.5h8.849
			l23.169,26.704h-32.018c-4.142,0-7.5,3.358-7.5,7.5c0,4.142,3.358,7.5,7.5,7.5H454.37c4.142,0,7.5-3.358,7.5-7.5
			c0-4.142-3.358-7.5-7.5-7.5H230.857c1.739-2.081,2.615-4.658,2.615-7.267v-19.436H454.37c4.142,0,7.5-3.358,7.5-7.5
			c0-4.142-3.358-7.501-7.5-7.501H233.472v-9.911h16.403c10.194,0,18.815-7.115,21.011-16.793H454.37c4.142,0,7.5-3.358,7.5-7.5
			c0-4.142-3.358-7.5-7.5-7.5H271.436v-26.704h182.934c4.142,0,7.5-3.358,7.5-7.5s-3.358-7.5-7.5-7.5H271.436v-45.761h212.808
			c7.033,0,12.755,5.721,12.755,12.754v106.81C496.999,244.311,500.357,247.669,504.5,247.669z"/>
	</g>
</g>
<g>
</g>
<g>
</g>
<g>
</g>
<g>
</g>
<g>
</g>
<g>
</g>
<g>
</g>
<g>
</g>
<g>
</g>
<g>
</g>
<g>
</g>
<g>
</g>
<g>
</g>
<g>
</g>
<g>
</g>
</svg>
