<svg height="480pt" viewBox="0 0 480 480" width="480pt" xmlns="http://www.w3.org/2000/svg"><path d="m456 288v-224c0-17.671875-14.328125-32-32-32h-8c0-17.671875-14.328125-32-32-32h-240c-17.671875 0-32 14.328125-32 32h-8c-17.671875 0-32 14.328125-32 32v80h16v-80c0-8.835938 7.164062-16 16-16h8v96h16v-112c0-8.835938 7.164062-16 16-16h240c8.835938 0 16 7.164062 16 16v208h16v-192h8c8.835938 0 16 7.164062 16 16v192h-184v16h184v16c0 8.835938-7.164062 16-16 16h-168v16h42.046875l19.199219 64h-61.246094v16h96v-16h-18.046875l-19.199219-64h109.246094c17.671875 0 32-14.328125 32-32zm0 0"/><path d="m144 32h16v16h-16zm0 0"/><path d="m176 32h16v16h-16zm0 0"/><path d="m208 32h16v16h-16zm0 0"/><path d="m144 64h32v16h-32zm0 0"/><path d="m144 96h24v16h-24zm0 0"/><path d="m352 56h32v16h-32zm0 0"/><path d="m360 88h24v16h-24zm0 0"/><path d="m352 208h32v16h-32zm0 0"/><path d="m360 176h24v16h-24zm0 0"/><path d="m32 480h176c17.671875 0 32-14.328125 32-32v-256c0-17.671875-14.328125-32-32-32h-176c-17.671875 0-32 14.328125-32 32v256c0 17.671875 14.328125 32 32 32zm-16-288c0-8.835938 7.164062-16 16-16h176c8.835938 0 16 7.164062 16 16v256c0 8.835938-7.164062 16-16 16h-176c-8.835938 0-16-7.164062-16-16zm0 0"/><path d="m40 256h160c4.417969 0 8-3.582031 8-8v-48c0-4.417969-3.582031-8-8-8h-160c-4.417969 0-8 3.582031-8 8v48c0 4.417969 3.582031 8 8 8zm8-48h144v32h-144zm0 0"/><path d="m40 320h32c4.417969 0 8-3.582031 8-8v-32c0-4.417969-3.582031-8-8-8h-32c-4.417969 0-8 3.582031-8 8v32c0 4.417969 3.582031 8 8 8zm8-32h16v16h-16zm0 0"/><path d="m136 272h-32c-4.417969 0-8 3.582031-8 8v32c0 4.417969 3.582031 8 8 8h32c4.417969 0 8-3.582031 8-8v-32c0-4.417969-3.582031-8-8-8zm-8 32h-16v-16h16zm0 0"/><path d="m200 272h-32c-4.417969 0-8 3.582031-8 8v32c0 4.417969 3.582031 8 8 8h32c4.417969 0 8-3.582031 8-8v-32c0-4.417969-3.582031-8-8-8zm-8 32h-16v-16h16zm0 0"/><path d="m40 384h32c4.417969 0 8-3.582031 8-8v-32c0-4.417969-3.582031-8-8-8h-32c-4.417969 0-8 3.582031-8 8v32c0 4.417969 3.582031 8 8 8zm8-32h16v16h-16zm0 0"/><path d="m136 336h-32c-4.417969 0-8 3.582031-8 8v32c0 4.417969 3.582031 8 8 8h32c4.417969 0 8-3.582031 8-8v-32c0-4.417969-3.582031-8-8-8zm-8 32h-16v-16h16zm0 0"/><path d="m200 336h-32c-4.417969 0-8 3.582031-8 8v96c0 4.417969 3.582031 8 8 8h32c4.417969 0 8-3.582031 8-8v-96c0-4.417969-3.582031-8-8-8zm-8 96h-16v-80h16zm0 0"/><path d="m40 448h32c4.417969 0 8-3.582031 8-8v-32c0-4.417969-3.582031-8-8-8h-32c-4.417969 0-8 3.582031-8 8v32c0 4.417969 3.582031 8 8 8zm8-32h16v16h-16zm0 0"/><path d="m136 400h-32c-4.417969 0-8 3.582031-8 8v32c0 4.417969 3.582031 8 8 8h32c4.417969 0 8-3.582031 8-8v-32c0-4.417969-3.582031-8-8-8zm-8 32h-16v-16h16zm0 0"/><path d="m472 432h-24v-24c0-4.417969-3.582031-8-8-8h-72v16h64v16h-144c-1.578125.003906-3.125.46875-4.441406 1.34375l-24 16c-2.222656 1.484375-3.558594 3.980469-3.558594 6.65625s1.335938 5.171875 3.558594 6.65625l24 16c1.316406.875 2.863281 1.339844 4.441406 1.34375h184c4.417969 0 8-3.582031 8-8v-32c0-4.417969-3.582031-8-8-8zm-40 32h-141.601562l-12-8 12-8h141.601562zm32 0h-16v-16h16zm0 0"/><path d="m256.800781 215.640625-1.601562 15.917969c2.898437.289062 5.832031.441406 8.800781.441406 23.296875-.011719 45.640625-9.257812 62.136719-25.710938l.085937-.066406c27.390625-27.394531 33.640625-69.476562 15.402344-103.652344-18.242188-34.175781-56.683594-52.402343-94.6875-44.894531-38.003906 7.503907-66.628906 38.980469-70.503906 77.523438l15.917968 1.601562c2.632813-26.246093 19.40625-48.949219 43.71875-59.179687 24.3125-10.226563 52.269532-6.34375 72.875 10.121094l-48.257812 48.257812h-28.6875v16h28.6875l48.257812 48.257812c-3.0625 2.453126-6.328124 4.644532-9.761718 6.542969-12.886719 7.222657-27.683594 10.3125-42.382813 8.839844zm18.511719-71.640625 44.953125-44.945312c20.980469 26.289062 20.980469 63.601562 0 89.890624zm0 0"/></svg>