<svg height="512pt" viewBox="0 -1 512.00024 512" width="512pt" xmlns="http://www.w3.org/2000/svg"><path d="m501.167969 354.03125c7.117187-1.253906 11.894531-8.070312 10.628906-15.199219l-4.476563-25.40625c-1.273437-7.183593-8.089843-11.90625-15.1875-10.640625l-25.679687 4.527344c-.992187-1.867188-2.046875-3.695312-3.171875-5.480469l16.765625-19.980469c4.632813-5.523437 3.953125-13.785156-1.617187-18.480468l-19.777344-16.582032c-5.574219-4.675781-13.828125-3.917968-18.46875 1.617188l-16.757813 19.964844c-1.957031-.792969-3.945312-1.515625-5.949219-2.167969v-26.070313c0-7.226562-5.894531-13.109374-13.121093-13.109374h-25.808594c-7.230469 0-13.113281 5.882812-13.113281 13.109374v26.070313c-2.015625.652344-4.003906 1.375-5.953125 2.167969l-16.761719-19.964844c-4.65625-5.550781-12.914062-6.28125-18.472656-1.617188l-19.765625 16.582032c-5.578125 4.683594-6.273438 12.957031-1.617188 18.480468l16.753907 19.980469c-1.121094 1.785157-2.175782 3.613281-3.171876 5.480469l-25.667968-4.527344c-7.121094-1.265625-13.925782 3.464844-15.199219 10.640625l-4.476563 25.40625c-1.253906 7.128907 3.515626 13.945313 10.640626 15.199219l25.679687 4.527344c.289063 2.097656.652344 4.175781 1.09375 6.234375l-11.273437 6.503906c-2.5-2.460937-5.148438-4.878906-7.949219-7.246094-23.570313-19.949219-53.535157-31.3125-78.273438-33.078125 8.09375-4.628906 16.253907-10.167968 23.792969-16.273437 13.59375-11 34.773438-31.742188 41.730469-58.433594 20.96875-4.144531 36.820312-22.675781 36.820312-44.851563 0-21.351562-14.695312-39.324218-34.511719-44.332031v-23.863281c10.882813 0 16.03125-6.582031 16.03125-13.871094v-68.894531c0-14.9375-7.890624-28.058594-19.714843-35.4375v-9.777344c0-8.402343-6.917969-15.238281-15.417969-15.238281h-157.746094c-36.59375 0-66.367187 29.082031-66.367187 64.820312 0 61.707032-2.628907 72.367188 8.382812 80.617188 5.050781 4.589844 11.464844 6.847656 17.136719 6.90625v15.941406c-17.757812 6.285156-30.507812 23.242188-30.507812 43.117188 0 20.628906 13.730468 38.117187 32.542968 43.796875 6.667969 27.207031 28.230469 48.347656 42.003906 59.5 7.539063 6.105469 15.699219 11.644531 23.789063 16.28125-45.863281 4.46875-85.878906 30.648437-108.828125 69.058593-2.125 3.574219-.960938 8.191407 2.601562 10.328126 3.574219 2.128906 8.191407.964843 10.328126-2.601563 7.972656-13.347656 18.242187-25.113281 31.03125-35.222656-1.988282 6.394531-3.132813 13.8125-3.03125 22.425781.128906 11.402344 13.773437 17.085938 22.34375 9.796875l23.632812-17.066406c.238281 0 52.039062 22.589843 52.261719 22.6875 1.003906.695312 2.054687 1.253906 3.148437 1.71875v83.289062h-125.300781c-12.195313 0-22.113281-9.917969-22.113281-22.117187 0-13.558594 2.105468-26.921875 6.273437-39.691406 1.285157-3.953126-.875-8.199219-4.828125-9.484376-3.945312-1.296874-8.203125.863282-9.488281 4.816407-4.65625 14.285156-7.015625 29.203125-7.015625 44.359375 0 20.5 16.675781 37.175781 37.171875 37.175781h265.664063c9.9375 0 19.273437-3.867187 26.277343-10.882813 10.363281-10.339843 12.027344-24.746093 10.371094-29.0625.453125-1.304687.632813-6.804687-.402344-14.988281l23.472657 8.542969c6.996093 2.539062 14.398437-1.1875 16.8125-7.828125l8.925781-24.515625c2.109375.082031 4.207031.082031 6.324219 0l8.914062 24.515625c2.480469 6.785156 10.019531 10.308594 16.816406 7.828125l24.25-8.824219c6.785156-2.460937 10.320313-9.976562 7.839844-16.804687l-8.921875-24.511719c1.664063-1.296875 3.28125-2.652344 4.835937-4.066406l22.597657 13.039062c6.320312 3.644531 14.3125 1.449219 17.910156-4.796875l12.910156-22.347656c3.613281-6.261719 1.464844-14.304688-4.800781-17.917969l-22.574219-13.039062c.429688-2.058594.800781-4.136719 1.082031-6.234375zm-440.011719-116.007812c-9.226562-5.289063-15.449219-15.246094-15.449219-26.621094s6.222657-21.320313 15.449219-26.613282zm150.167969 130.714843v-22.585937c8.953125.890625 20.726562 3.511718 31.007812 7.457031 13.851563 7.769531 20.898438 20.167969 21.492188 37.824219-24.363281-17.585938-22.878907-16.574219-23.703125-17.023438-4.292969-2.238281-9.234375-2.339844-13.519532-.441406l-28.722656 12.214844 11.4375-12.328125c1.28125-1.394531 2.007813-3.222657 2.007813-5.117188zm86.980469-157.324219c0 12.96875-8.078126 24.070313-19.472657 28.546876.019531-.441407.019531-.890626.019531-1.332032v-55.765625c11.382813 4.488281 19.453126 15.589844 19.453126 28.550781zm-24.550782-168.007812c7.886719 9.910156 6.070313 10.683594 6.070313 84.757812h-.972657c-19.636718 0-15.4375 0-34.742187 0-10.320313 0-19.285156-5.894531-23.710937-14.488281 24.5625-16.613281 47.519531-41.078125 53.355468-70.269531zm-216.695312 92.835938h-.007813c-8.496093-4.105469-6.355469-9.6875-6.355469-71.421876 0-27.285156 22.847657-49.761718 51.367188-49.761718.28125 0 158.046875-.101563 158.046875.179687 0 15.1875.082031 16.03125-.28125 19.457031-4.636719 45.945313-62.910156 85.957032-127.226563 98.015626-.023437.007812-.03125.007812-.050781.007812-33.488281 6.316406-71.835937 5.203125-75.492187 3.523438zm22.367187 120.796874c-4.425781-12.78125-3.210937-15.691406-3.210937-76.304687v-28.367187c46.265625 0 90.96875-7.660157 131.351562-30.738282 7.117188 12.859375 20.832032 21.589844 36.542969 21.589844h19.683594v95.410156c0 46.15625-66.554688 91.671875-95.898438 91.671875-21.171875-2.097656-74.808593-33.558593-88.46875-73.261719zm34.058594 116.96875c-5.949219-2.679687-11.914063-.921874-14.523437.972657l-22.789063 16.453125c1.085937-32.152344 21.613281-41.578125 52.503906-45.28125v22.585937c0 1.847657.671875 3.625 1.894531 5l11.175782 12.578125zm30.25-8.132812v-27.414062c20.808594 9.15625 31.5 9.265624 52.53125 0v27.324218l-26.875 28.960938zm174.730469 123.042969c-4.167969 4.175781-9.71875 6.476562-15.628906 6.476562h-125.304688v-83.933593c4.265625-2.246094 55.121094-23.742188 55.394531-23.769532l23.652344 17.074219c3.941406 3.351563 9.515625 4.1875 14.34375 2.109375 4.878906-2.109375 7.941406-6.667969 8-11.90625.101563-8.605469-1.042969-16.023438-3.03125-22.417969 2.421875 1.894531 5.386719 4.390625 7.960937 6.777344-4.617187 4.035156-5.894531 10.910156-2.722656 16.421875l12.910156 22.347656c3.59375 6.238282 11.582032 8.445313 17.910157 4.796875l2.128906-1.234375c11.140625 25.558594 10.5 47.082032 11.292969 49.121094-.914063 2.636719.683594 10.570312-6.90625 18.136719zm14.9375-58.542969c-1.667969-5.179688-3.734375-10.632812-6.285156-16.234375l7.429687-4.285156c1.566406 1.414062 3.179687 2.769531 4.835937 4.066406zm128.542968-55.375 25.808594 14.898438-10.960937 18.984374c-40.214844-23.210937-25.640625-18.007812-46.5-3.964843-2.871094 1.925781-4.054688 5.570312-2.871094 8.824219l10.199219 28.015624-20.597656 7.5-10.199219-28.027343c-1.09375-2.992188-3.9375-4.949219-7.078125-4.949219-1.203125 0-7.113282.960938-15.789063.039062-3.453125-.363281-6.695312 1.65625-7.871093 4.910157l-10.199219 28.027343-20.597657-7.5 10.1875-28.015624c1.183594-3.253907 0-6.898438-2.871093-8.824219-4.144531-2.792969-8-6.035157-11.472657-9.636719-2.402343-2.5-6.195312-3.042969-9.195312-1.308594-12.371094 7.136719-25.832031 14.910156-25.832031 14.910156-10.019531-17.347656-7.839844-13.5625-10.960938-18.984374 15.582031-8.992188 9.757813-5.632813 25.820313-14.898438 2.992187-1.734375 4.425781-5.289062 3.460937-8.613281-1.382812-4.777344-2.246093-9.746094-2.578125-14.753907-.230468-3.453124-2.792968-6.316406-6.203125-6.917968l-29.375-5.179688 3.804688-21.582031 29.355469 5.167969c3.402343.601562 6.792968-1.195313 8.191406-4.367188 2.015625-4.554687 4.546875-8.921875 7.496094-12.957031 2.046874-2.800781 1.929687-6.636719-.300782-9.285156l-19.171875-22.851563 16.792969-14.09375 19.164062 22.839844c2.226563 2.660156 5.984376 3.453125 9.085938 1.917969 4.484375-2.210938 9.214844-3.925781 14.074219-5.121094 3.363281-.824219 5.730469-3.84375 5.730469-7.308594v-29.8125h21.925781c0 46.519531-2.730469 31.15625 19.792969 42.242188 3.113281 1.523437 6.867187.742187 9.097656-1.917969l19.164062-22.839844 16.785156 14.09375c-29.867187 35.605469-22.15625 22.109375-11.976562 45.09375 1.402344 3.171875 4.777344 4.96875 8.191406 4.367188l29.351563-5.167969 3.816406 21.582031-29.375 5.179688c-3.421875.601562-5.984375 3.464844-6.214844 6.917968-.328125 5.007813-1.191406 9.96875-2.578125 14.753907-.964844 3.324219.472656 6.878906 3.472656 8.613281zm0 0"/><path d="m329.652344 345.941406c0 52.601563 61.324218 80.558594 101.113281 47.6875 3.203125-2.648437 3.65625-7.394531 1.007813-10.601562-2.648438-3.203125-7.394532-3.65625-10.601563-1.007813-30.492187 25.195313-76.460937 3.183594-76.460937-36.078125 0-41.78125 50.613281-62.230468 79.789062-33.050781 13.113281 13.113281 16.703125 31.859375 11.230469 48.058594-1.332031 3.941406.78125 8.214843 4.722656 9.546875 3.9375 1.328125 8.210937-.785156 9.542969-4.722656 7.21875-21.375 2.523437-46.15625-14.847656-63.53125-38.542969-38.539063-105.496094-11.59375-105.496094 43.699218zm0 0"/><path d="m419.378906 373.871094c24.636719-24.632813 7.410156-67.425782-27.929687-67.425782-34.835938 0-52.914063 42.4375-27.925781 67.425782 15.398437 15.398437 40.457031 15.398437 55.855468 0zm-27.925781-52.367188c21.847656 0 32.53125 26.464844 17.277344 41.71875-9.527344 9.527344-25.03125 9.527344-34.558594 0-15.449219-15.449218-4.300781-41.71875 17.28125-41.71875zm0 0"/><path d="m308.984375 122.65625 21.601563 3.808594c.203124 1.363281.4375 2.722656.714843 4.070312l-18.992187 10.964844c-5.910156 3.414062-7.945313 11-4.53125 16.914062l11.207031 19.414063c3.429687 5.9375 10.996094 7.945313 16.914063 4.53125l19-10.96875c1.03125.910156 2.085937 1.796875 3.160156 2.652344l-7.503906 20.617187c-2.332032 6.414063.988281 13.535156 7.402343 15.871094 23 8.371094 22.394531 8.414062 25.285157 8.414062 5.058593 0 9.820312-3.125 11.648437-8.148437l7.503906-20.617187c1.382813.039062 2.75.039062 4.128907 0l7.503906 20.621093c2.335937 6.414063 9.453125 9.730469 15.871094 7.398438l21.0625-7.667969c6.417968-2.335938 9.738281-9.457031 7.402343-15.871094l-7.503906-20.617187c1.074219-.855469 2.128906-1.738281 3.160156-2.652344l19 10.96875c5.914063 3.414063 13.484375 1.40625 16.914063-4.53125l11.210937-19.414063c3.410157-5.914062 1.378907-13.5-4.535156-16.914062l-18.992187-10.964844c.277343-1.347656.511718-2.707031.714843-4.070312l21.601563-3.808594c6.722656-1.1875 11.226562-7.621094 10.042968-14.34375 0 0-3.890624-22.074219-3.890624-22.078125-1.1875-6.722656-7.628907-11.226563-14.34375-10.042969l-21.601563 3.808594c-.65625-1.210938-1.34375-2.402344-2.066406-3.574219l14.097656-16.804687c4.398437-5.242188 3.71875-13.042969-1.523437-17.441406l-17.175782-14.410157c-5.265625-4.417969-13.058594-3.695312-17.441406 1.523438l-14.09375 16.796875c-1.28125-.507813-2.578125-.976563-3.886719-1.414063v-21.929687c0-6.824219-5.554687-12.378906-12.382812-12.378906h-22.417969c-6.824219 0-12.378906 5.554687-12.378906 12.378906v21.929687c-1.308594.433594-2.605469.90625-3.890625 1.414063l-14.09375-16.796875c-4.386719-5.230469-12.210938-5.914063-17.441407-1.527344l-17.171874 14.410156c-5.242188 4.398438-5.925782 12.203125-1.527344 17.445313l14.097656 16.800781c-.722656 1.175781-1.410156 2.367187-2.070312 3.578125l-21.597657-3.808594c-6.722656-1.183594-13.15625 3.320313-14.339843 10.042969l-3.894532 22.074219c-1.1875 6.726562 3.320313 13.160156 10.042969 14.347656zm8.214844-31.171875 24.523437 4.324219c3.410156.601562 6.792969-1.199219 8.195313-4.367188 1.722656-3.894531 3.878906-7.625 6.40625-11.078125 2.050781-2.796875 1.921875-6.628906-.308594-9.285156l-16.015625-19.085937 13.070312-10.96875 16.011719 19.078124c2.230469 2.65625 5.984375 3.449219 9.09375 1.914063 3.828125-1.882813 7.871094-3.355469 12.015625-4.371094 3.367188-.828125 5.734375-3.847656 5.734375-7.3125v-24.90625h17.066407v24.90625c0 3.464844 2.367187 6.484375 5.730468 7.3125 4.148438 1.015625 8.191406 2.488281 12.019532 4.371094 3.109374 1.53125 6.863281.742187 9.09375-1.914063l16.007812-19.078124 13.070312 10.96875-16.015624 19.085937c-2.226563 2.65625-2.355469 6.488281-.308594 9.285156 2.527344 3.453125 4.683594 7.179688 6.410156 11.078125 1.398438 3.167969 4.777344 4.96875 8.191406 4.367188l24.527344-4.324219 2.960938 16.804687-24.539063 4.328126c-3.414063.601562-5.976563 3.457031-6.207031 6.917968-.285156 4.28125-1.023438 8.519532-2.207032 12.601563-.960937 3.328125.46875 6.882812 3.46875 8.613281l21.566407 12.453125-8.535157 14.777344-21.578124-12.460938c-3-1.730469-6.796876-1.191406-9.195313 1.304688-2.964844 3.085937-6.261719 5.855469-9.804687 8.238281-2.875 1.929688-4.058594 5.570312-2.875 8.824219l8.519531 23.40625-16.035157 5.835937-8.519531-23.410156c-1.1875-3.253906-4.441406-5.28125-7.875-4.914062-4.261719.457031-8.558593.457031-12.8125 0-3.445312-.367188-6.691406 1.660156-7.875 4.914062l-8.523437 23.410156-16.035156-5.835937 8.523437-23.40625c1.183594-3.253907-.003906-6.894531-2.878906-8.824219-3.542969-2.382812-6.839844-5.152344-9.804688-8.238281-2.398437-2.496094-6.191406-3.035157-9.191406-1.304688l-21.582031 12.460938-8.535156-14.777344 21.570312-12.453125c2.996094-1.730469 4.429688-5.285156 3.464844-8.613281-1.179688-4.082031-1.921875-8.320313-2.203125-12.601563-.230469-3.457031-2.792969-6.316406-6.207031-6.917968l-24.542969-4.328126zm0 0"/><path d="m404.457031 169.300781c48.433594 0 73.070313-58.890625 38.65625-93.304687-21.3125-21.3125-55.996093-21.3125-77.3125 0-34.375 34.375-9.8125 93.304687 38.65625 93.304687zm0-94.238281c35.117188 0 52.929688 42.683594 28.011719 67.601562-15.445312 15.445313-40.574219 15.445313-56.019531 0-24.90625-24.90625-7.113281-67.601562 28.007812-67.601562zm0 0"/><path d="m425.867188 136.066406c19.070312-19.074218 5.382812-51.6875-21.410157-51.6875-26.773437 0-40.496093 32.601563-21.410156 51.6875 11.835937 11.832032 30.988281 11.835938 42.820313 0zm-32.171876-32.175781c5.949219-5.945313 15.574219-5.945313 21.523438 0 5.9375 5.9375 5.9375 15.59375 0 21.527344-5.945312 5.949219-15.574219 5.949219-21.523438 0-5.933593-5.933594-5.933593-15.589844 0-21.527344zm0 0"/><path d="m190.210938 235.601562c-4.160157 0-7.53125 3.367188-7.53125 7.527344 0 6.992188-5.6875 12.679688-12.675782 12.679688-6.992187 0-12.679687-5.6875-12.679687-12.679688 0-4.160156-3.371094-7.527344-7.527344-7.527344-15.4375 0-6.453125 35.265626 20.207031 35.265626 26.679688 0 35.628906-35.265626 20.207032-35.265626zm0 0"/><path d="m233.929688 198.457031c0 6.628907-5.375 12.003907-12.003907 12.003907-6.628906 0-12.003906-5.375-12.003906-12.003907 0-6.628906 5.375-12.003906 12.003906-12.003906 6.628907 0 12.003907 5.375 12.003907 12.003906zm0 0"/><path d="m130.085938 198.457031c0 6.628907-5.375 12.003907-12.003907 12.003907-6.632812 0-12.003906-5.375-12.003906-12.003907 0-6.628906 5.371094-12.003906 12.003906-12.003906 6.628907 0 12.003907 5.375 12.003907 12.003906zm0 0"/><path d="m207.289062 178.523438c5.824219-1.214844 24.566407-3.355469 33.941407 2.539062 3.523437 2.214844 8.167969 1.148438 10.378906-2.367188 7.976563-12.683593-21.300781-20.355468-47.394531-14.910156-4.070313.847656-6.683594 4.835938-5.835938 8.90625.851563 4.070313 4.835938 6.6875 8.910156 5.832032zm0 0"/><path d="m135.792969 163.78125c-2.90625-.605469-28.871094-5.625-45.03125 4.53125-3.519531 2.214844-4.578125 6.863281-2.363281 10.382812 2.210937 3.519532 6.855468 4.582032 10.378906 2.367188 9.359375-5.882812 27.664062-3.828125 33.941406-2.539062 4.074219.855468 8.058594-1.761719 8.90625-5.835938.851562-4.066406-1.761719-8.054688-5.832031-8.90625zm0 0"/><path d="m287.695312 458.421875h-64.515624c-4.15625 0-7.527344 3.371094-7.527344 7.527344 0 4.160156 3.371094 7.53125 7.527344 7.53125h64.515624c4.15625 0 7.527344-3.371094 7.527344-7.53125 0-4.15625-3.371094-7.527344-7.527344-7.527344zm0 0"/><path d="m116.828125 473.480469c4.15625 0 7.527344-3.371094 7.527344-7.53125 0-4.15625-3.371094-7.527344-7.527344-7.527344h-64.515625c-4.15625 0-7.527344 3.371094-7.527344 7.527344 0 4.160156 3.371094 7.53125 7.527344 7.53125zm0 0"/></svg>